 <svg version="1.0" xmlns="http://www.w3.org/2000/svg" width="700.000000pt" height="700.000000pt" viewBox="0 0 700.000000 700.000000" preserveAspectRatio="xMidYMid meet">
<metadata>
Created by potrace 1.12, written by Peter Selinger 2001-2015
</metadata>
<g transform="translate(0.000000,700.000000) scale(0.100000,-0.100000)" fill="#000000" stroke="none">
<path d="M3295 6330 c-66 -4 -149 -15 -185 -25 -36 -9 -121 -25 -190 -35 -69
-10 -146 -28 -171 -39 -25 -11 -79 -28 -118 -36 -40 -8 -91 -26 -114 -39 -23
-14 -68 -31 -99 -39 -31 -8 -69 -24 -83 -35 -14 -12 -50 -28 -78 -38 -29 -9
-65 -28 -80 -40 -16 -13 -34 -24 -41 -24 -8 0 -40 -18 -72 -40 -33 -22 -63
-40 -69 -40 -5 0 -30 -16 -54 -35 -24 -19 -47 -35 -52 -35 -4 0 -28 -17 -53
-37 -25 -21 -69 -56 -97 -78 -28 -22 -81 -68 -118 -102 -36 -33 -79 -72 -96
-85 -16 -12 -41 -36 -55 -53 -14 -16 -52 -60 -85 -96 -33 -36 -78 -89 -100
-118 -22 -28 -56 -71 -75 -96 -47 -58 -73 -99 -109 -167 -17 -31 -36 -60 -42
-64 -6 -3 -22 -30 -35 -59 -12 -29 -27 -56 -33 -59 -5 -4 -19 -32 -31 -64 -12
-31 -32 -73 -45 -92 -13 -19 -29 -57 -35 -85 -6 -27 -22 -69 -36 -92 -13 -23
-31 -74 -39 -114 -8 -39 -25 -93 -36 -118 -11 -25 -29 -104 -40 -176 -10 -71
-26 -155 -34 -185 -38 -132 -38 -648 0 -780 8 -30 24 -113 34 -185 11 -71 29
-151 40 -176 11 -25 28 -79 36 -118 8 -40 26 -91 39 -114 14 -23 30 -64 36
-92 6 -27 22 -66 35 -85 13 -19 33 -61 45 -92 12 -32 26 -60 31 -64 6 -3 21
-30 33 -59 13 -29 29 -56 35 -59 6 -4 25 -33 42 -64 36 -68 62 -109 109 -167
19 -25 53 -68 75 -96 48 -62 243 -276 255 -281 4 -2 40 -32 78 -68 38 -36 93
-83 121 -105 28 -22 71 -56 96 -75 56 -45 98 -73 160 -106 28 -15 63 -37 78
-50 16 -13 34 -24 41 -24 7 0 34 -14 61 -31 28 -17 68 -38 90 -46 22 -7 56
-25 75 -38 19 -13 60 -29 90 -36 30 -6 73 -21 95 -34 23 -13 78 -33 123 -44
45 -11 95 -27 112 -36 17 -9 92 -25 168 -36 75 -11 159 -26 187 -35 129 -38
635 -38 775 1 30 8 112 24 181 34 69 10 147 28 175 40 27 11 83 28 124 36 41
9 89 24 107 35 19 11 65 29 103 41 38 11 74 27 80 34 6 8 43 26 81 40 38 15
72 31 75 36 3 6 31 21 61 34 30 14 68 36 85 50 16 14 35 25 41 25 7 0 32 16
56 35 24 19 47 35 52 35 4 0 28 17 53 38 25 20 69 55 97 77 81 63 221 188 258
231 19 21 61 69 95 105 34 37 79 90 101 118 22 28 57 72 78 97 20 25 37 49 37
53 0 5 14 26 31 47 17 22 37 55 45 74 8 19 23 44 34 55 10 11 28 41 38 66 11
26 25 50 31 53 5 4 19 32 31 64 12 31 32 73 45 92 13 19 29 58 35 85 6 28 22
69 36 92 13 23 31 74 39 114 8 39 25 93 36 118 11 25 29 105 40 176 10 72 26
155 34 185 38 132 38 648 0 780 -8 30 -24 114 -35 185 -10 72 -28 151 -39 176
-12 26 -28 79 -36 118 -8 40 -26 91 -39 114 -14 23 -30 65 -36 92 -6 28 -22
66 -35 85 -13 19 -33 61 -45 92 -12 32 -26 60 -31 64 -6 3 -20 27 -31 53 -10
25 -28 55 -38 66 -11 11 -26 36 -34 55 -8 19 -28 52 -45 74 -17 21 -31 42 -31
47 0 4 -17 28 -37 53 -21 25 -56 69 -78 97 -114 146 -315 347 -460 459 -25 19
-66 52 -91 73 -25 20 -49 37 -53 37 -5 0 -28 16 -52 35 -24 19 -49 35 -56 35
-6 0 -25 11 -41 25 -17 14 -55 36 -85 50 -30 13 -58 28 -61 34 -4 5 -32 19
-64 31 -31 12 -73 32 -92 45 -19 13 -57 29 -85 36 -27 7 -68 22 -90 35 -23 13
-74 30 -114 39 -41 8 -95 25 -120 36 -25 11 -104 29 -176 40 -71 10 -155 26
-185 34 -58 16 -299 36 -410 33 -36 0 -119 -4 -185 -8z m615 -449 c41 -12 124
-30 183 -41 60 -10 123 -28 140 -39 18 -11 60 -26 94 -35 33 -9 87 -30 118
-46 31 -17 65 -30 75 -30 9 0 34 -12 55 -26 21 -14 62 -36 91 -49 28 -12 55
-28 58 -34 4 -6 25 -20 47 -32 22 -11 61 -35 87 -54 26 -19 64 -47 85 -62 46
-34 206 -172 263 -228 59 -57 193 -214 234 -273 129 -185 170 -250 184 -291 8
-20 25 -54 40 -75 14 -21 26 -44 26 -51 0 -7 13 -39 30 -70 16 -31 37 -84 46
-118 8 -33 24 -78 35 -99 11 -21 28 -85 38 -141 11 -56 24 -115 31 -132 26
-67 40 -223 40 -452 0 -237 -10 -354 -36 -433 -8 -25 -23 -93 -34 -152 -11
-59 -28 -125 -39 -146 -11 -21 -27 -66 -35 -99 -9 -34 -30 -87 -46 -118 -17
-31 -30 -63 -30 -70 0 -7 -12 -30 -26 -51 -15 -21 -32 -55 -40 -75 -14 -41
-55 -106 -184 -291 -43 -61 -178 -219 -234 -272 -67 -64 -222 -199 -263 -229
-21 -15 -59 -43 -85 -62 -26 -19 -65 -43 -87 -54 -22 -12 -43 -26 -46 -32 -4
-6 -36 -24 -70 -39 -34 -15 -65 -33 -69 -38 -3 -6 -30 -18 -59 -27 -28 -10
-70 -28 -92 -40 -23 -13 -70 -31 -105 -40 -36 -9 -80 -25 -99 -37 -19 -11 -76
-26 -125 -34 -50 -8 -120 -23 -156 -33 -106 -32 -208 -41 -450 -41 -241 0
-344 9 -450 40 -36 11 -99 24 -140 31 -41 6 -104 24 -140 39 -36 15 -81 31
-100 35 -19 3 -62 19 -95 35 -33 16 -80 38 -105 50 -25 11 -75 37 -112 58 -37
20 -90 50 -118 65 -28 15 -72 44 -98 63 -26 19 -67 49 -90 67 -183 134 -407
365 -522 537 -129 192 -148 223 -155 250 -4 14 -17 39 -30 55 -12 17 -28 48
-35 70 -7 22 -24 60 -37 84 -14 24 -32 71 -40 104 -7 33 -23 75 -34 93 -11 18
-29 81 -39 141 -11 59 -29 142 -41 183 -19 66 -22 108 -26 349 -6 289 3 401
38 516 10 33 25 102 33 153 8 52 23 106 35 125 11 19 26 58 32 88 6 30 24 77
39 104 15 28 33 68 40 90 7 22 23 54 35 70 13 17 26 41 30 55 7 26 28 61 129
210 77 116 90 133 176 230 104 118 278 285 342 328 13 9 50 34 81 54 31 21 59
42 62 48 4 6 30 22 58 36 29 15 61 34 72 44 11 9 39 24 61 33 23 9 58 27 79
41 21 14 43 26 50 26 7 0 39 13 70 30 31 16 85 37 118 46 34 8 78 25 97 36 19
11 76 27 125 35 50 8 119 23 155 34 111 33 175 38 485 35 273 -3 307 -5 375
-25z"></path>
<path d="M1993 4359 c-18 -18 -19 -1699 -1 -1717 8 -8 66 -12 194 -12 153 0
185 3 198 16 13 13 16 46 16 203 0 169 2 190 18 204 16 15 49 17 248 17 241 0
323 9 383 41 20 11 52 24 71 29 63 17 182 119 260 221 24 31 45 80 92 209 28
77 23 263 -9 330 -12 25 -30 68 -40 95 -22 58 -73 127 -137 188 -81 75 -111
96 -182 122 -38 15 -87 34 -109 43 -35 15 -100 17 -515 20 -370 2 -478 0 -487
-9z m928 -429 c47 -13 124 -94 138 -146 25 -89 6 -155 -63 -223 -46 -45 -59
-53 -112 -61 -32 -6 -145 -10 -249 -10 -156 0 -195 3 -213 16 -21 15 -22 20
-22 208 0 200 4 221 44 228 42 7 444 -3 477 -12z"></path>
<path d="M3742 4358 c-9 -9 -12 -214 -12 -859 0 -731 2 -848 15 -859 11 -9
116 -11 437 -8 l423 3 72 33 c39 17 78 32 85 32 8 0 48 22 90 50 107 70 202
169 247 257 11 23 32 58 45 78 13 19 27 54 31 78 4 23 19 69 34 102 25 57 26
68 26 235 -1 166 -2 178 -27 235 -14 33 -29 79 -33 102 -4 24 -18 59 -31 78
-13 20 -33 54 -43 76 -24 49 -60 94 -131 165 -59 59 -184 144 -210 144 -9 0
-39 11 -66 25 -72 38 -164 45 -574 45 -272 0 -369 -3 -378 -12z m885 -461 c76
-56 101 -87 149 -183 l39 -79 0 -136 0 -135 -44 -85 c-51 -99 -66 -117 -146
-175 l-59 -44 -198 0 c-185 0 -198 1 -208 19 -6 13 -10 163 -10 421 0 258 4
408 10 421 10 18 23 19 209 19 l199 0 59 -43z"></path>
</g>
</svg>